<!-- icon666.com - MILLIONS vector ICONS FREE --><svg viewBox="-66 0 512 512.001" xmlns="http://www.w3.org/2000/svg"><path d="m110 446c5.519531 0 10-4.480469 10-10s-4.480469-10-10-10-10 4.480469-10 10 4.480469 10 10 10zm0 0"></path><path d="m20.429688 398.902344c1.277343 4.214844 5.164062 7.097656 9.570312 7.097656h10v96c0 5.523438 4.476562 10 10 10h280c5.523438 0 10-4.476562 10-10v-96h10c4.40625 0 8.292969-2.882812 9.570312-7.097656l20-66c.917969-3.03125.347657-6.316406-1.539062-8.859375s-4.863281-4.042969-8.03125-4.042969h-35.105469c-16.019531-46.683594-56.132812-90.015625-104.894531-98.855469v-3.707031c18.636719-13.011719 30-34.507812 30-57.4375v-23.285156c2.8125.410156 5.242188-.390625 7.425781-2.222656 2.265625-1.898438 3.574219-4.703126 3.574219-7.660157v-21.558593l29-12.246094v58.695312c-11.636719 4.125-20 15.242188-20 28.277344 0 16.542969 13.457031 30 30 30s30-13.457031 30-30c0-13.035156-8.359375-24.152344-20-28.277344v-67.265625l13.9375-5.972656c3.6875-1.582031 6.070312-5.207031 6.0625-9.214844-.007812-4.007812-2.410156-7.625-6.101562-9.1875l-140-59.289062c-2.492188-1.058594-5.304688-1.058594-7.796876 0l-140 59.289062c-3.691406 1.5625-6.09375 5.179688-6.101562 9.1875-.007812 4.007813 2.375 7.632813 6.0625 9.214844l61.9375 26.742187v21.753907c0 3 1.816406 5.839843 4.136719 7.742187 2.203125 1.800782 5.0625 2.558594 7.863281 2.125v23.152344c0 22.929688 11.363281 44.425781 30 57.4375v3.707031c-48.871094 8.863281-88.921875 52.316407-104.890625 98.855469h-35.109375c-3.164062 0-6.144531 1.5-8.03125 4.042969-1.8867188 2.542969-2.457031 5.828125-1.539062 8.859375zm289.570312-208.902344c-5.511719 0-10-4.484375-10-10 0-5.511719 4.488281-10 10-10 5.515625 0 10 4.488281 10 10 0 5.515625-4.484375 10-10 10zm10 302h-260v-86h260zm-6.429688-172h-99.429687l57.484375-57.480469c18.082031 14.648438 33.015625 35.167969 41.945312 57.480469zm-143.570312-92.914062c6.460938 1.921874 13.199219 2.914062 20 2.914062s13.542969-.992188 20-2.914062v2.914062c0 11.027344-8.972656 20-20 20s-20-8.972656-20-20zm20 42.914062c18.167969 0 33.535156-12.175781 38.390625-28.796875 8.960937 1.847656 17.777344 5.160156 26.363281 9.902344l-64.753906 64.753906-64.75-64.753906c8.585938-4.742188 17.398438-8.054688 26.359375-9.902344 4.859375 16.621094 20.222656 28.796875 38.390625 28.796875zm-52.039062-154.910156c-3.003907 0-6.421876.117187-9.175782.339844-.261718.019531-.523437.039062-.785156.0625 0-5.480469 0-17.679688 0-23.515626 13.070312-7.359374 36.867188-11.976562 62-11.976562 25.058594 0 48.914062 4.597656 62 11.921875v23.558594c-.125-.011719-.253906-.019531-.378906-.03125-.039063-.003907-.074219-.003907-.113282-.007813-.0625-.003906-.121093-.007812-.179687-.011718-2.960937-.226563-5.929687-.339844-8.828125-.339844-20.40625 0-39.894531 5.46875-51.167969 14.621094-.761719.621093-2.007812.621093-2.765625.007812-11.265625-9.160156-30.1875-14.628906-50.605468-14.628906zm52.039062-94.230469 114.484375 48.484375-33.898437 14.347656c-.601563-2.070312-1.421876-3.925781-3.199219-5.242187-15.332031-11.378907-44.988281-18.449219-77.386719-18.449219-32.496094 0-62.195312 7.105469-77.511719 18.535156-1.734375 1.292969-3.429687 3.101563-4.042969 5.121094l-32.929687-14.3125zm-50 139.140625v-24.875c17.710938.367188 30.140625 5.390625 35.960938 10.121094 4.050781 3.285156 9.015624 4.929687 13.984374 4.929687 4.964844 0 9.933594-1.644531 13.988282-4.933593 5.832031-4.734376 18.308594-9.769532 36.066406-10.117188v24.875c0 27.242188-22.078125 50-50 50-27.925781 0-50-22.765625-50-50zm-31.621094 102.519531 57.480469 57.480469h-99.425781c8.925781-22.308594 23.859375-42.828125 41.945312-57.480469zm248.140625 77.480469-13.9375 46c-31.328125 0-274.128906 0-305.160156 0l-13.941406-46zm0 0"></path><path d="m150 446h120c5.523438 0 10-4.476562 10-10s-4.476562-10-10-10h-120c-5.523438 0-10 4.476562-10 10s4.476562 10 10 10zm0 0"></path></svg>