<!-- icon666.com - MILLIONS vector ICONS FREE --><svg id="Capa_1" enable-background="new 0 0 512.726 512.726" viewBox="0 0 512.726 512.726" xmlns="http://www.w3.org/2000/svg"><g><path d="m.726.253v30h31v94.609c-8.802 5.237-15 14.431-15 25.391v90h60v-90c0-10.961-6.198-20.154-15-25.391v-94.609h60v150h270v-150h121v-30c-12.788 0-534.801 0-512 0z"></path><path d="m469.489 360.253h-107.763v60h150v-30c-19.53 0-36.025-12.578-42.237-30z"></path><path d="m1.726 345.253c0 41.353 33.633 75 75 75h75v-60h-90v-30h407.763c6.213-17.422 22.707-30 42.237-30v-30h-435c-41.368 0-75 33.647-75 75z"></path><path d="m181.726 512.253 75-37.5 75 37.5c0-4.869 0-155.932 0-152h-150c0 3.794 0 158.837 0 152z"></path></g></svg>