<svg width="17" height="18" viewBox="0 0 17 18" fill="none" xmlns="http://www.w3.org/2000/svg">
<g id="&#240;&#159;&#166;&#134; icon &#34;mail&#34;">
<path id="Vector" d="M8.42264 17.3698C13.0743 17.3698 16.8453 13.5989 16.8453 8.94716C16.8453 4.29547 13.0743 0.524521 8.42264 0.524521C3.77094 0.524521 0 4.29547 0 8.94716C0 13.5989 3.77094 17.3698 8.42264 17.3698Z" fill="white"/>
<path id="Vector_2" opacity="0.2" d="M13.6868 12.1056C13.6868 12.6847 13.213 13.1585 12.6339 13.1585H4.21131C3.63225 13.1585 3.15848 12.6847 3.15848 12.1056V6.8415C3.15848 6.26244 3.63225 5.78867 4.21131 5.78867H12.6339C13.213 5.78867 13.6868 6.26244 13.6868 6.8415V12.1056Z" fill="white"/>
<path id="Vector_3" d="M13.6868 11.5792C13.6868 12.1583 13.213 12.6321 12.6339 12.6321H4.21131C3.63225 12.6321 3.15848 12.1583 3.15848 11.5792V6.31508C3.15848 5.73603 3.63225 5.26225 4.21131 5.26225H12.6339C13.213 5.26225 13.6868 5.73603 13.6868 6.31508V11.5792Z" fill="#231F20"/>
<path id="Vector_4" opacity="0.2" d="M9.34387 8.47339C8.84378 7.92065 8.00152 7.92065 7.50142 8.47339L3.4217 11.8951C3.36906 11.9477 3.34274 12.0004 3.2901 12.053C3.47435 12.3952 3.81652 12.6321 4.18501 12.6321H12.6076C13.0025 12.6321 13.3183 12.3952 13.5026 12.053C13.4762 12.0004 13.4236 11.9477 13.3709 11.8951L9.34387 8.47339Z" fill="white"/>
<path id="Vector_5" d="M9.34387 9.44424C8.84378 8.94414 8.00152 8.94414 7.50142 9.44424L3.4217 12.4711C3.36906 12.5238 3.34274 12.5501 3.2901 12.6027C3.47435 12.9186 3.81652 13.1028 4.18501 13.1028H12.6076C13.0025 13.1028 13.3183 12.8923 13.5026 12.6027C13.4762 12.5501 13.4236 12.5238 13.3709 12.4711L9.34387 9.44424Z" fill="#231F20"/>
<path id="Vector_6" opacity="0.2" d="M3.31644 5.84131C3.50068 5.49914 3.84285 5.26225 4.21134 5.26225H12.634C13.0288 5.26225 13.3446 5.49914 13.5289 5.84131C13.5026 5.89395 13.4499 5.94659 13.3973 5.99923L9.34389 9.42093C8.8438 9.97367 8.00153 9.97367 7.50144 9.42093L3.31644 5.84131Z" fill="white"/>
<path id="Vector_7" d="M7.2529 8.45009C7.753 8.95018 8.59526 8.95018 9.09535 8.45009L13.1751 5.4232C13.2277 5.37056 13.254 5.34424 13.3067 5.2916C13.1224 4.97575 12.7803 4.7915 12.4118 4.7915H3.96281C3.568 4.7915 3.25215 5.00207 3.0679 5.2916C3.09422 5.34424 3.14686 5.37056 3.19951 5.4232L7.2529 8.45009Z" fill="#231F20"/>
</g>
</svg>
