<svg width="17" height="17" viewBox="0 0 17 17" fill="none" xmlns="http://www.w3.org/2000/svg">
<g id="&#240;&#159;&#166;&#134; icon &#34;phone&#34;">
<path id="Vector" d="M8.42264 16.8453C13.0743 16.8453 16.8453 13.0743 16.8453 8.42264C16.8453 3.77094 13.0743 0 8.42264 0C3.77094 0 0 3.77094 0 8.42264C0 13.0743 3.77094 16.8453 8.42264 16.8453Z" fill="white"/>
<path id="Vector_2" opacity="0.2" d="M7.63303 6.65915C7.52775 5.39575 6.21171 4.79037 6.15907 4.76405C6.08011 4.73773 6.02747 4.73773 5.97483 4.73773C4.44822 5.00094 4.23765 5.86952 4.21133 5.92217V6.08009C6.02747 11.7127 9.79133 12.7392 11.0284 13.0814C11.1337 13.1077 11.2127 13.1341 11.2653 13.1604C11.2916 13.1604 11.3179 13.1867 11.3443 13.1867C11.3969 13.1867 11.4232 13.1867 11.4759 13.1604C11.5022 13.1341 12.3971 12.7129 12.634 11.3442C12.634 11.2916 12.634 11.2126 12.6077 11.16C12.5813 11.1337 12.1076 10.2388 10.8178 9.92292C10.7389 9.8966 10.6336 9.92292 10.5546 9.97556C10.1335 10.3177 9.58077 10.6862 9.34388 10.7389C7.71199 9.94924 6.79077 8.39632 6.76445 8.10679C6.73813 7.94886 7.10662 7.36981 7.55407 6.89603C7.60671 6.84339 7.63303 6.73811 7.63303 6.65915Z" fill="#231F20"/>
<path id="Vector_3" d="M7.63303 6.13273C7.52775 4.86934 6.21171 4.26396 6.15907 4.23764C6.08011 4.21132 6.02747 4.21132 5.97483 4.21132C4.44822 4.47453 4.23765 5.34311 4.21133 5.39575V5.55368C6.02747 11.1863 9.79133 12.2128 11.0284 12.555C11.1337 12.5813 11.2127 12.6076 11.2653 12.634C11.2916 12.634 11.3179 12.6603 11.3443 12.6603C11.3969 12.6603 11.4232 12.6603 11.4759 12.634C11.5022 12.6076 12.3971 12.1865 12.634 10.8178C12.634 10.7652 12.634 10.6862 12.6077 10.6336C12.5813 10.6073 12.1076 9.71236 10.8178 9.39651C10.7389 9.37019 10.6336 9.39651 10.5546 9.44915C10.1335 9.79132 9.58077 10.1598 9.34388 10.2125C7.71199 9.42283 6.79077 7.8699 6.76445 7.58038C6.73813 7.42245 7.10662 6.84339 7.55407 6.36962C7.60671 6.31698 7.63303 6.2117 7.63303 6.13273Z" fill="#1E1E1E"/>
</g>
</svg>
