<svg width="17" height="17" viewBox="0 0 17 17" fill="none" xmlns="http://www.w3.org/2000/svg">
<g id="&#240;&#159;&#166;&#134; icon &#34;mark github&#34;">
<path id="Vector" fill-rule="evenodd" clip-rule="evenodd" d="M8.42264 0.573578C3.76913 0.573578 0 4.34271 0 8.99622C0 12.7232 2.41098 15.8712 5.75898 16.9872C6.18011 17.0609 6.33804 16.8082 6.33804 16.5871C6.33804 16.3871 6.32751 15.7238 6.32751 15.0184C4.21132 15.408 3.66385 14.5025 3.4954 14.0287C3.40064 13.7866 2.99004 13.0391 2.63208 12.839C2.33728 12.6811 1.91615 12.2916 2.62155 12.281C3.28483 12.2705 3.7586 12.8917 3.91653 13.1444C4.67457 14.4183 5.88532 14.0603 6.36962 13.8392C6.44332 13.2918 6.66442 12.9233 6.90657 12.7127C5.03253 12.5021 3.07426 11.7757 3.07426 8.55403C3.07426 7.63807 3.40064 6.88003 3.93759 6.29045C3.85336 6.07988 3.55857 5.21656 4.02181 4.05845C4.02181 4.05845 4.72721 3.83735 6.33804 4.92177C7.01185 4.73226 7.72777 4.6375 8.4437 4.6375C9.15962 4.6375 9.87555 4.73226 10.5494 4.92177C12.1602 3.82682 12.8656 4.05845 12.8656 4.05845C13.3288 5.21656 13.034 6.07988 12.9498 6.29045C13.4868 6.88003 13.8131 7.62754 13.8131 8.55403C13.8131 11.7862 11.8443 12.5021 9.9703 12.7127C10.2756 12.9759 10.5388 13.4813 10.5388 14.2709C10.5388 15.3974 10.5283 16.3029 10.5283 16.5871C10.5283 16.8082 10.6862 17.0714 11.1074 16.9872C12.7794 16.4227 14.2323 15.3481 15.2617 13.9146C16.291 12.4812 16.8448 10.761 16.8453 8.99622C16.8453 4.34271 13.0762 0.573578 8.42264 0.573578Z" fill="white"/>
</g>
</svg>
